<?xml version="1.0" standalone="no"?>
<!DOCTYPE svg PUBLIC "-//W3C//DTD SVG 20010904//EN"
 "http://www.w3.org/TR/2001/REC-SVG-20010904/DTD/svg10.dtd">
<svg version="1.0" xmlns="http://www.w3.org/2000/svg"
  viewBox="0 0 243.000000 208.000000"
 preserveAspectRatio="xMidYMid meet">

<g transform="translate(0.000000,208.000000) scale(0.100000,-0.100000)"
fill="#000000" stroke="none">
<path d="M867 1364 c-4 -4 -7 -132 -7 -284 0 -295 1 -300 50 -300 45 0 50 15
50 147 l0 123 255 0 255 0 0 -123 c0 -82 4 -127 12 -135 16 -16 63 -15 77 2 8
9 11 95 9 292 l-3 279 -45 0 -45 0 -3 -127 -3 -128 -254 0 -254 0 -3 128 -3
127 -40 3 c-23 2 -44 0 -48 -4z"/>
<path d="M740 1251 c-15 -29 -13 -334 2 -349 7 -7 26 -12 43 -12 17 0 36 5 43
12 15 15 17 320 2 349 -7 13 -21 19 -45 19 -24 0 -38 -6 -45 -19z"/>
<path d="M1600 1251 c-15 -29 -13 -334 2 -349 7 -7 26 -12 43 -12 17 0 36 5
43 12 15 15 17 320 2 349 -7 13 -21 19 -45 19 -24 0 -38 -6 -45 -19z"/>
<path d="M621 1096 c-22 -26 -2 -46 45 -46 42 0 44 1 44 30 0 28 -2 30 -39 30
-21 0 -44 -6 -50 -14z"/>
<path d="M1720 1080 c0 -29 2 -30 44 -30 31 0 46 5 50 16 10 26 -13 44 -55 44
-37 0 -39 -2 -39 -30z"/>
<path d="M0 65 l0 -65 1215 0 1215 0 0 65 0 65 -1215 0 -1215 0 0 -65z m258 5
c-1 -16 -5 -30 -10 -30 -4 0 -8 3 -8 8 0 4 -3 17 -6 30 -5 16 -2 22 9 22 11 0
15 -9 15 -30z m1758 -9 c-10 -16 -36 -13 -36 3 0 17 21 27 34 16 4 -5 5 -13 2
-19z m144 7 c0 -13 -10 -16 -60 -15 -38 1 -62 7 -65 15 -3 8 3 11 19 8 12 -2
28 -1 33 2 6 4 25 7 42 7 22 0 31 -5 31 -17z m42 7 c5 -6 8 -5 8 3 0 7 5 10
10 7 18 -11 11 -34 -10 -32 -11 1 -20 6 -20 12 0 5 -5 3 -10 -5 -8 -12 -10
-11 -10 8 0 22 18 26 32 7z m151 2 c45 -3 26 -21 -25 -25 -43 -2 -48 0 -48 19
0 17 4 20 23 15 12 -4 34 -8 50 -9z m-2251 -21 c5 -8 8 -7 8 2 0 6 5 12 11 12
5 0 7 -6 3 -12 -6 -10 -4 -10 7 0 17 16 49 16 49 0 0 -10 2 -10 8 -1 12 19 34
19 37 1 2 -10 -1 -18 -6 -18 -5 0 -9 6 -10 13 0 10 -2 10 -6 0 -2 -7 -13 -13
-24 -13 -10 0 -19 6 -20 13 0 9 -2 9 -6 0 -6 -17 -73 -17 -74 0 0 9 -2 9 -6
-1 -4 -10 -8 -10 -21 0 -12 10 -14 10 -8 1 4 -7 2 -13 -3 -13 -15 0 -14 27 2
33 17 5 50 -4 59 -17z m2166 13 c-5 -14 -21 -14 -26 0 -2 6 4 11 13 11 9 0 15
-5 13 -11z m-1948 -13 c0 -6 5 -5 12 2 18 18 98 16 98 -3 0 -13 -14 -15 -79
-14 -55 1 -81 6 -85 15 -3 9 4 12 25 12 16 -1 29 -6 29 -12z"/>
</g>
</svg>
