<?xml version="1.0" standalone="no"?>
<!DOCTYPE svg PUBLIC "-//W3C//DTD SVG 20010904//EN"
 "http://www.w3.org/TR/2001/REC-SVG-20010904/DTD/svg10.dtd">
<svg version="1.0" xmlns="http://www.w3.org/2000/svg"
  viewBox="0 0 275.000000 183.000000"
 preserveAspectRatio="xMidYMid meet">

<g transform="translate(0.000000,183.000000) scale(0.100000,-0.100000)"
fill="#000000" stroke="none">
<path d="M1240 1281 c-34 -6 -35 -8 -38 -53 l-3 -48 63 8 c35 4 86 7 113 7 28
0 78 -3 113 -7 l63 -8 -3 47 c-3 47 -4 48 -43 55 -48 8 -216 8 -265 -1z m232
-10 c6 -1 38 -54 38 -63 0 -2 -61 -3 -135 -3 -74 0 -135 1 -135 3 0 12 32 61
42 64 10 4 169 3 190 -1z"/>
<path d="M1276 1244 c-9 -24 -9 -24 37 -22 l42 1 -37 4 c-27 3 -35 8 -31 19 3
8 3 14 0 14 -3 0 -8 -7 -11 -16z"/>
<path d="M1464 1248 c4 -13 -3 -18 -32 -21 l-37 -4 43 -1 c44 -2 49 3 31 28
-9 13 -10 13 -5 -2z"/>
<path d="M1310 1174 c-14 -3 -44 -7 -66 -10 l-42 -5 11 -41 10 -41 15 29 c18
35 30 44 60 44 27 0 62 -33 62 -59 0 -31 -33 -63 -65 -63 -18 0 -36 8 -47 22
-10 12 -18 18 -18 13 0 -17 55 -86 96 -122 l39 -35 3 124 c1 68 0 130 -2 137
-5 13 -10 14 -56 7z"/>
<path d="M1387 1173 c-12 -11 -8 -31 8 -37 11 -4 15 1 15 19 0 24 -10 32 -23
18z"/>
<path d="M1450 1136 c0 -18 7 -39 15 -46 13 -11 15 -6 15 34 0 34 -4 46 -15
46 -10 0 -15 -10 -15 -34z"/>
<path d="M1520 1118 c0 -48 4 -47 18 5 8 30 8 37 -4 37 -10 0 -14 -12 -14 -42z"/>
<path d="M1420 1077 c0 -19 7 -40 15 -47 8 -7 15 -24 15 -37 0 -22 2 -24 15
-13 14 11 14 15 1 29 -8 9 -16 34 -18 55 -4 51 -28 62 -28 13z"/>
<path d="M1250 1074 c0 -20 27 -37 36 -23 4 7 3 9 -4 5 -6 -3 -15 2 -21 11 -6
10 -11 13 -11 7z"/>
<path d="M1326 1064 c-5 -14 -4 -15 9 -4 17 14 19 20 6 20 -5 0 -12 -7 -15
-16z"/>
<path d="M1480 1038 c1 -31 1 -32 15 -13 17 21 15 37 -3 43 -8 2 -12 -8 -12
-30z"/>
<path d="M1380 985 c0 -69 2 -75 18 -66 14 8 16 19 12 72 -3 37 -10 64 -17 67
-10 3 -13 -16 -13 -73z"/>
<path d="M618 764 c4 -91 -2 -121 -26 -127 -13 -3 -13 -4 3 -3 11 1 25 12 32
26 17 34 17 180 1 180 -10 0 -12 -20 -10 -76z"/>
<path d="M1305 760 c0 -65 3 -80 15 -80 12 0 15 9 12 40 l-4 40 52 0 52 0 -4
-40 c-2 -23 1 -40 7 -40 6 0 10 32 10 80 0 49 -4 80 -10 80 -7 0 -9 -15 -7
-35 l4 -35 -51 0 -51 0 0 35 c0 21 -5 35 -12 35 -9 0 -13 -23 -13 -80z"/>
<path d="M680 798 c-11 -12 -20 -33 -20 -48 0 -28 25 -70 41 -70 6 0 3 10 -5
22 -24 33 -20 84 6 102 12 9 17 16 11 16 -7 0 -21 -10 -33 -22z"/>
<path d="M765 795 c29 -28 32 -60 9 -95 -14 -22 -12 -22 10 3 14 15 26 36 26
46 0 23 -37 71 -55 71 -9 0 -5 -9 10 -25z"/>
<path d="M818 811 c10 -6 13 -26 10 -70 -2 -40 1 -61 8 -61 7 0 10 20 8 57 -2
31 2 63 8 70 8 10 4 13 -18 13 -20 0 -25 -3 -16 -9z"/>
<path d="M925 750 c0 -43 4 -70 11 -70 6 0 10 21 9 53 0 28 3 60 7 70 7 13 4
17 -9 17 -16 0 -18 -9 -18 -70z"/>
<path d="M1041 750 c46 -52 65 -66 66 -53 1 10 4 42 5 71 3 47 1 52 -17 51
-11 0 -14 -3 -7 -6 7 -3 12 -24 12 -54 l0 -50 -47 53 c-25 29 -53 55 -61 57
-8 1 14 -29 49 -69z"/>
<path d="M1147 813 c-17 -16 -5 -51 24 -72 21 -16 29 -29 26 -42 -3 -10 -1
-17 4 -13 19 12 8 51 -21 72 -31 24 -39 47 -17 55 6 3 7 6 1 6 -6 1 -14 -2
-17 -6z"/>
<path d="M1195 810 c3 -5 8 -10 11 -10 2 0 4 5 4 10 0 6 -5 10 -11 10 -5 0 -7
-4 -4 -10z"/>
<path d="M1490 800 c-26 -26 -26 -81 0 -105 11 -10 22 -16 25 -13 3 3 -1 11
-10 18 -24 20 -20 86 7 104 12 9 17 16 10 16 -6 0 -21 -9 -32 -20z"/>
<path d="M1567 805 c29 -21 37 -60 18 -97 -15 -31 -15 -31 5 -13 29 26 27 89
-2 109 -12 9 -27 16 -32 16 -6 0 -1 -7 11 -15z"/>
<path d="M1628 811 c10 -6 13 -26 10 -70 -2 -36 1 -61 7 -61 6 0 9 26 7 65 -3
61 -2 65 17 65 27 0 38 -26 22 -51 -13 -21 -2 -26 17 -7 18 18 14 46 -7 58
-24 12 -92 14 -73 1z"/>
<path d="M1740 805 c8 -10 11 -35 8 -70 -3 -36 -1 -55 6 -55 7 0 11 26 11 70
0 62 -2 70 -19 70 -15 0 -16 -3 -6 -15z"/>
<path d="M1797 784 l-29 -34 29 -34 c15 -19 35 -35 42 -35 9 -1 2 12 -17 32
-18 18 -32 38 -32 44 0 6 14 23 31 37 17 14 25 26 17 25 -7 0 -26 -16 -41 -35z"/>
<path d="M1888 750 c2 -38 7 -70 12 -70 5 0 10 32 12 70 2 57 0 70 -12 70 -12
0 -14 -13 -12 -70z"/>
<path d="M1948 813 c8 -3 12 -27 12 -69 0 -35 3 -64 8 -64 4 0 5 26 4 57 l-4
58 54 -59 53 -58 3 63 c2 35 6 67 8 71 3 4 -5 8 -18 7 -13 0 -17 -3 -10 -6 7
-3 12 -24 12 -56 l0 -52 -53 58 c-28 32 -59 57 -67 56 -10 0 -11 -2 -2 -6z"/>
<path d="M2112 808 c-19 -19 -14 -36 19 -60 22 -17 29 -29 26 -45 -3 -19 -2
-21 9 -12 22 18 17 33 -22 67 -30 27 -34 35 -24 47 15 18 9 20 -8 3z"/>
<path d="M1130 695 c0 -8 4 -15 10 -15 5 0 7 7 4 15 -4 8 -8 15 -10 15 -2 0
-4 -7 -4 -15z"/>
<path d="M2096 695 c4 -8 11 -15 16 -15 6 0 5 6 -2 15 -7 8 -14 15 -16 15 -2
0 -1 -7 2 -15z"/>
<path d="M990 690 c0 -5 5 -10 11 -10 5 0 7 5 4 10 -3 6 -8 10 -11 10 -2 0 -4
-4 -4 -10z"/>
<path d="M810 581 c0 -17 4 -32 8 -35 4 -2 6 11 4 30 -5 42 -12 45 -12 5z"/>
<path d="M950 607 c0 -10 52 -68 57 -63 2 2 -10 19 -26 37 -17 18 -31 30 -31
26z"/>
<path d="M1093 575 c0 -22 2 -30 4 -17 2 12 2 30 0 40 -3 9 -5 -1 -4 -23z"/>
<path d="M1180 605 c0 -5 5 -17 10 -25 5 -8 10 -10 10 -5 0 6 -5 17 -10 25 -5
8 -10 11 -10 5z"/>
<path d="M1466 597 c3 -10 9 -15 12 -12 3 3 0 11 -7 18 -10 9 -11 8 -5 -6z"/>
<path d="M1673 575 c0 -22 2 -30 4 -17 2 12 2 30 0 40 -3 9 -5 -1 -4 -23z"/>
<path d="M1783 575 c0 -22 2 -30 4 -17 2 12 2 30 0 40 -3 9 -5 -1 -4 -23z"/>
<path d="M1890 609 c0 -4 7 -22 15 -40 8 -19 14 -27 14 -19 0 14 -28 72 -29
59z"/>
<path d="M1566 573 c6 -4 14 -15 17 -23 5 -11 6 -9 4 4 -1 11 -9 21 -17 23
-10 3 -11 2 -4 -4z"/>
</g>
</svg>
