<?xml version="1.0" standalone="no"?>
<!DOCTYPE svg PUBLIC "-//W3C//DTD SVG 20010904//EN"
 "http://www.w3.org/TR/2001/REC-SVG-20010904/DTD/svg10.dtd">
<svg version="1.0" xmlns="http://www.w3.org/2000/svg"
 viewBox="0 0 225.000000 225.000000"
 preserveAspectRatio="xMidYMid meet">

<g transform="translate(0.000000,225.000000) scale(0.100000,-0.100000)"
fill="#000000" stroke="none">
<path d="M870 1829 c-184 -15 -441 -56 -470 -74 -10 -6 -12 -50 -7 -193 3
-101 8 -186 11 -189 3 -3 65 4 138 16 256 40 314 45 573 45 265 1 377 -8 603
-46 68 -11 126 -17 129 -14 4 3 8 89 11 190 4 172 3 185 -14 194 -30 16 -256
51 -430 67 -169 16 -388 17 -544 4z m155 -75 c101 -20 103 -20 205 1 111 22
238 17 296 -14 37 -19 45 -32 97 -146 31 -69 57 -130 57 -136 0 -8 -13 -9 -42
-5 -161 26 -231 30 -513 30 -244 0 -335 -4 -429 -17 -65 -10 -120 -16 -123
-13 -3 2 22 64 55 136 61 135 72 148 142 170 42 14 170 10 255 -6z"/>
<path d="M754 1698 c-13 -6 -35 -42 -57 -91 -19 -45 -34 -83 -33 -84 1 -2 38
2 82 7 43 6 136 10 207 9 70 -1 130 0 133 3 13 14 -147 42 -238 43 -59 0 -98
4 -98 10 0 6 9 34 20 63 21 54 19 58 -16 40z"/>
<path d="M1480 1660 c11 -28 20 -56 20 -63 0 -9 -27 -12 -92 -12 -86 0 -248
-29 -248 -44 0 -3 55 -4 123 -3 68 2 163 -1 212 -7 49 -6 90 -10 91 -8 1 1
-14 39 -33 83 -25 57 -43 85 -60 93 -35 16 -35 16 -13 -39z"/>
<path d="M940 1358 c-221 -10 -508 -51 -517 -75 -7 -17 22 -147 54 -243 37
-115 134 -306 204 -400 82 -112 214 -241 319 -313 l85 -58 3 276 c1 151 1 398
0 548 l-3 272 -145 -7z m-23 -133 c87 -43 137 -126 137 -225 0 -143 -109 -252
-254 -252 -67 0 -113 18 -165 63 -105 92 -113 261 -17 363 71 76 203 98 299
51z"/>
<path d="M688 1178 c-21 -12 -38 -25 -38 -29 0 -8 40 -24 43 -17 1 1 12 18 25
36 26 38 21 39 -30 10z"/>
<path d="M887 1169 c21 -37 35 -44 59 -31 14 8 12 13 -22 36 -50 34 -59 33
-37 -5z"/>
<path d="M755 1150 c-15 -29 -15 -30 5 -30 16 0 20 7 20 30 0 17 -2 30 -5 30
-2 0 -11 -13 -20 -30z"/>
<path d="M820 1153 c0 -26 4 -33 20 -33 25 0 25 11 0 41 l-19 24 -1 -32z"/>
<path d="M958 1098 c-29 -10 -32 -18 -22 -55 5 -18 14 -23 40 -23 38 0 43 14
21 61 -11 23 -15 25 -39 17z"/>
<path d="M601 1069 c-16 -47 -15 -49 28 -49 36 0 39 2 44 33 5 35 -5 47 -40
47 -15 0 -24 -9 -32 -31z"/>
<path d="M716 1064 c-13 -34 -7 -44 29 -44 32 0 35 2 35 30 0 26 -3 30 -29 30
-17 0 -31 -6 -35 -16z"/>
<path d="M827 1074 c-4 -4 -7 -18 -7 -31 0 -20 5 -23 39 -23 38 0 39 1 32 28
-5 19 -15 28 -32 30 -14 2 -28 0 -32 -4z"/>
<path d="M590 970 c0 -6 6 -26 14 -45 14 -33 16 -34 46 -24 21 8 29 16 26 26
-3 8 -6 23 -6 34 0 16 -7 19 -40 19 -22 0 -40 -5 -40 -10z"/>
<path d="M710 966 c0 -32 13 -46 41 -46 26 0 29 4 29 30 0 28 -3 30 -35 30
-24 0 -35 -5 -35 -14z"/>
<path d="M822 953 c2 -23 8 -29 36 -31 30 -3 32 -1 32 27 0 29 -3 31 -36 31
-33 0 -35 -2 -32 -27z"/>
<path d="M935 950 c-8 -36 -2 -46 29 -52 21 -4 27 0 36 25 17 49 13 57 -24 57
-30 0 -35 -4 -41 -30z"/>
<path d="M740 873 c0 -5 9 -19 20 -33 l20 -25 0 33 c0 25 -4 32 -20 32 -11 0
-20 -3 -20 -7z"/>
<path d="M820 848 l1 -33 19 24 c25 30 25 41 0 41 -16 0 -20 -7 -20 -32z"/>
<path d="M662 862 c-14 -9 4 -30 45 -51 33 -17 34 -14 10 24 -23 35 -33 40
-55 27z"/>
<path d="M892 838 c-12 -18 -19 -34 -17 -37 3 -2 24 9 47 24 38 25 40 29 23
36 -30 12 -32 11 -53 -23z"/>
<path d="M1160 1293 l0 -71 53 -34 c28 -19 58 -38 65 -42 9 -6 12 18 12 103
l0 109 -65 4 -65 3 0 -72z"/>
<path d="M1430 1201 c0 -83 -3 -151 -8 -151 -4 0 -31 16 -59 35 -29 19 -55 35
-58 35 -3 0 -5 -67 -5 -150 0 -89 -4 -150 -10 -150 -5 0 -35 18 -67 41 l-58
40 -3 -161 c-1 -89 -1 -231 0 -315 l3 -155 63 40 62 39 0 231 c0 126 3 230 7
230 4 0 33 -18 64 -40 32 -22 60 -40 63 -40 3 0 6 70 6 155 l0 155 64 -40 c35
-22 66 -40 70 -40 11 0 7 368 -5 375 -6 4 -37 9 -70 12 l-59 6 0 -152z"/>
<path d="M1701 1095 c2 -246 4 -249 59 -96 46 124 81 284 65 293 -7 4 -38 11
-69 14 l-57 7 2 -218z"/>
<path d="M1570 790 c0 -82 -3 -150 -8 -150 -4 0 -23 11 -42 23 -19 13 -47 32
-62 42 l-28 17 0 -122 c0 -143 -5 -142 98 -15 54 67 172 251 172 269 0 6 -116
86 -124 86 -4 0 -6 -67 -6 -150z"/>
</g>
</svg>
