<?xml version="1.0" standalone="no"?>
<!DOCTYPE svg PUBLIC "-//W3C//DTD SVG 20010904//EN"
 "http://www.w3.org/TR/2001/REC-SVG-20010904/DTD/svg10.dtd">
<svg version="1.0" xmlns="http://www.w3.org/2000/svg"
  viewBox="0 0 369.000000 136.000000"
 preserveAspectRatio="xMidYMid meet">

<g transform="translate(0.000000,136.000000) scale(0.100000,-0.100000)"
fill="#000000" stroke="none">
<path d="M318 1353 c-308 -3 -318 -4 -318 -23 0 -18 9 -20 122 -23 l123 -3
-122 -2 -123 -2 0 -650 0 -650 680 0 680 0 0 680 0 680 -362 -2 c-200 -2 -506
-4 -680 -5z m444 -315 l3 -52 58 -13 c94 -21 97 -24 97 -97 0 -57 -3 -65 -25
-80 -20 -13 -33 -14 -67 -6 -24 5 -60 10 -82 10 -35 0 -38 2 -33 23 6 21 6 21
-13 -3 -17 -21 -20 -41 -19 -135 0 -81 3 -115 14 -129 18 -24 21 -176 5 -176
-6 0 -24 7 -40 15 -46 24 -129 29 -179 11 -55 -20 -61 -14 -61 67 0 43 5 62
19 76 16 16 21 40 27 131 7 105 6 112 -15 131 -19 18 -21 30 -21 123 l0 103
53 20 52 20 3 -49 c2 -40 6 -49 18 -44 9 3 22 6 30 6 10 0 14 14 14 50 l0 50
79 0 80 0 3 -52z m118 16 c37 -15 40 -19 40 -55 0 -44 0 -44 -55 -25 -37 13
-40 17 -43 55 -4 46 0 48 58 25z m-76 -300 c3 -9 6 -51 6 -95 0 -78 0 -79 -25
-79 -25 0 -25 1 -25 79 0 87 5 111 25 111 7 0 16 -7 19 -16z m-232 -363 c31
-6 88 -24 127 -40 80 -35 162 -41 212 -15 43 22 47 11 7 -19 -76 -59 -155 -63
-261 -14 -62 28 -83 32 -152 32 -64 0 -89 -5 -123 -23 l-43 -23 16 25 c22 33
71 63 121 75 21 5 39 9 39 10 0 0 26 -3 57 -8z"/>
<path d="M550 713 c0 -27 -3 -65 -6 -85 -6 -34 -4 -38 15 -38 20 0 21 5 21 85
0 69 -3 85 -15 85 -11 0 -15 -12 -15 -47z"/>
<path d="M1942 987 c-14 -16 -6 -27 20 -27 13 0 18 6 16 17 -4 22 -22 27 -36
10z"/>
<path d="M2564 989 c-9 -15 11 -33 30 -26 9 4 13 13 10 22 -7 17 -30 20 -40 4z"/>
<path d="M3178 988 c-26 -20 -34 -56 -30 -135 3 -60 7 -72 23 -76 17 -5 19 1
19 64 0 55 3 69 15 69 8 0 15 7 15 15 0 8 -5 14 -11 13 -22 -5 -21 23 0 29 24
6 23 26 0 31 -8 1 -22 -3 -31 -10z"/>
<path d="M1590 900 c0 -73 3 -83 25 -105 31 -32 69 -32 100 0 22 22 25 32 25
105 0 79 0 80 -25 80 -25 0 -25 -1 -25 -84 0 -86 -9 -105 -40 -86 -11 7 -13
30 -11 89 2 81 2 81 -23 81 -26 0 -26 -1 -26 -80z"/>
<path d="M2663 972 c-13 -8 -17 -35 -15 -114 2 -62 20 -91 55 -86 24 3 36 28
14 28 -18 0 -27 21 -27 66 0 22 6 37 15 40 18 7 20 35 3 32 -7 -2 -14 7 -16
20 -4 23 -10 26 -29 14z"/>
<path d="M1788 933 c-15 -4 -18 -16 -18 -79 0 -67 2 -74 20 -74 18 0 20 7 20
65 0 63 1 65 25 65 24 0 25 -2 25 -65 0 -58 2 -65 20 -65 18 0 20 7 20 64 0
45 -5 69 -16 80 -15 15 -58 19 -96 9z"/>
<path d="M1947 934 c-4 -4 -7 -42 -7 -85 0 -73 1 -77 20 -72 19 5 21 12 18 81
-3 69 -13 94 -31 76z"/>
<path d="M2008 934 c-8 -8 41 -147 55 -156 6 -3 16 -4 23 -1 14 5 65 148 56
157 -17 17 -33 0 -48 -51 l-17 -58 -17 55 c-14 50 -35 71 -52 54z"/>
<path d="M2185 915 c-65 -64 4 -172 89 -139 9 3 16 12 16 20 0 10 -8 12 -30 8
-29 -6 -60 8 -60 27 0 5 23 9 50 9 47 0 50 2 50 25 0 31 -41 75 -70 75 -11 0
-32 -11 -45 -25z m73 -27 c3 -14 -3 -18 -27 -18 -29 0 -41 17 -24 34 13 13 48
1 51 -16z"/>
<path d="M2348 933 c-15 -4 -18 -17 -18 -82 0 -70 2 -77 20 -77 18 0 20 7 20
68 0 61 2 68 20 68 11 0 20 7 20 15 0 15 -25 18 -62 8z"/>
<path d="M2446 924 c-24 -24 -19 -51 14 -76 17 -12 30 -28 30 -36 0 -10 -9
-13 -30 -10 -37 6 -42 -19 -6 -28 36 -9 65 4 72 32 8 33 -1 53 -31 64 -33 12
-33 40 -1 40 30 0 42 15 20 24 -27 10 -52 7 -68 -10z"/>
<path d="M2578 933 c-15 -4 -18 -16 -18 -79 0 -67 2 -74 20 -74 18 0 20 7 20
80 0 44 -1 79 -2 79 -2 -1 -11 -3 -20 -6z"/>
<path d="M2766 932 c-16 -3 -18 -12 -14 -68 2 -35 9 -69 15 -75 6 -6 28 -11
48 -11 28 0 35 -3 31 -15 -3 -8 -6 -17 -6 -19 0 -2 -15 -4 -34 -4 -19 0 -37
-4 -41 -9 -8 -14 32 -24 71 -16 45 8 56 35 52 139 -3 68 -6 81 -20 84 -16 3
-18 -5 -18 -63 0 -50 -4 -67 -16 -72 -26 -10 -38 14 -35 71 2 57 -2 65 -33 58z"/>
<path d="M3000 920 c-45 -45 -15 -150 43 -150 54 0 86 60 65 123 -17 48 -73
62 -108 27z m65 -65 c0 -43 -3 -50 -20 -50 -16 0 -21 8 -23 39 -4 49 3 68 25
64 14 -3 18 -14 18 -53z"/>
<path d="M2387 683 c-12 -11 -7 -41 7 -46 8 -3 22 0 32 8 15 11 16 15 5 29
-14 17 -33 21 -44 9z"/>
<path d="M2930 520 l0 -160 25 0 c25 0 25 0 25 99 0 81 3 100 16 105 56 22 74
-6 74 -115 0 -88 0 -89 25 -89 25 0 25 0 25 95 0 89 -2 98 -25 121 -21 21 -34
25 -68 22 l-42 -3 -3 43 c-3 37 -6 42 -28 42 l-24 0 0 -160z"/>
<path d="M1590 510 l0 -150 25 0 c24 0 24 0 27 110 l3 111 65 -111 c52 -88 69
-110 88 -110 22 0 22 1 22 150 l0 150 -25 0 -25 0 0 -102 0 -103 -61 103 c-55
93 -63 102 -90 102 l-29 0 0 -150z"/>
<path d="M2118 653 c-11 -3 -18 -14 -18 -29 0 -13 -6 -24 -13 -24 -8 0 -14 -7
-14 -15 0 -8 6 -15 14 -15 10 0 13 -21 13 -85 0 -94 16 -125 64 -125 34 0 42
28 11 40 -24 9 -25 14 -25 86 0 67 2 76 20 81 11 3 20 12 20 19 0 8 -9 14 -20
14 -16 0 -20 7 -20 30 0 17 -3 29 -7 29 -5 -1 -16 -3 -25 -6z"/>
<path d="M2263 650 c-15 -6 -21 -15 -18 -30 2 -13 -1 -20 -11 -20 -18 0 -18
-26 1 -33 11 -5 14 -26 14 -94 0 -96 9 -113 63 -113 21 0 28 5 28 20 0 11 -3
19 -7 19 -30 -5 -33 4 -33 86 0 76 2 85 18 85 10 0 19 7 19 15 0 8 -9 15 -19
15 -13 0 -18 8 -18 30 0 32 -3 34 -37 20z"/>
<path d="M1889 571 c-26 -26 -29 -36 -29 -91 0 -55 3 -65 29 -91 32 -31 71
-38 115 -18 62 28 66 171 7 216 -9 7 -33 13 -54 13 -29 0 -45 -7 -68 -29z
m101 -20 c5 -11 10 -43 10 -71 0 -28 -5 -60 -10 -71 -13 -23 -43 -25 -60 -4
-15 18 -15 132 1 151 16 20 47 17 59 -5z"/>
<path d="M2380 480 l0 -120 25 0 25 0 0 120 0 120 -25 0 -25 0 0 -120z"/>
<path d="M2498 593 c-16 -4 -18 -18 -18 -119 l0 -114 25 0 25 0 0 105 0 105
28 0 c45 0 52 -15 52 -117 0 -93 0 -93 25 -93 l25 0 0 100 c0 124 -11 141 -92
139 -29 -1 -61 -3 -70 -6z"/>
<path d="M2737 579 c-85 -66 -35 -229 66 -216 43 6 50 -10 16 -44 -15 -15 -30
-19 -62 -17 -32 2 -42 -1 -42 -12 0 -11 14 -16 49 -18 110 -7 126 17 126 192
0 104 -2 116 -19 126 -34 18 -106 12 -134 -11z m101 -96 c2 -48 -1 -83 -7 -83
-5 0 -16 -3 -24 -6 -28 -11 -57 32 -57 84 0 60 22 94 58 90 27 -3 27 -5 30
-85z"/>
<path d="M3188 593 c-10 -2 -18 -11 -18 -20 0 -12 7 -14 35 -9 46 9 71 1 78
-24 4 -16 0 -20 -22 -20 -94 0 -144 -78 -86 -135 19 -20 34 -25 74 -25 81 0
81 0 81 106 0 81 -3 97 -20 114 -19 19 -75 25 -122 13z m100 -150 c3 -34 -1
-44 -17 -53 -46 -24 -86 31 -56 76 12 19 23 24 43 22 24 -3 27 -8 30 -45z"/>
<path d="M3398 593 c-16 -4 -18 -18 -18 -119 l0 -114 25 0 c24 0 24 1 27 103
3 100 4 102 27 105 40 6 51 -21 51 -120 0 -87 0 -88 25 -88 24 0 24 1 27 103
l3 102 30 0 30 0 5 -100 5 -100 28 -3 27 -3 0 96 c0 87 -2 98 -23 119 -22 22
-31 23 -138 23 -63 0 -122 -2 -131 -4z"/>
<path d="M1914 85 c0 -50 1 -71 3 -48 2 23 2 64 0 90 -2 26 -3 8 -3 -42z"/>
<path d="M1590 102 c0 -66 11 -82 56 -82 39 0 45 13 42 88 l-1 57 -6 -65 c-6
-64 -6 -65 -36 -65 -30 0 -30 0 -33 63 -4 78 -22 82 -22 4z"/>
<path d="M1772 127 l-32 -32 0 28 c0 15 -4 27 -10 27 -6 0 -10 -28 -10 -65 0
-37 4 -65 10 -65 6 0 10 15 10 33 l1 32 30 -33 c38 -42 49 -36 13 7 l-27 32
28 29 c39 41 27 47 -13 7z"/>
<path d="M2048 149 c-22 -12 -32 -67 -19 -102 9 -24 15 -27 53 -26 34 2 37 3
13 6 -42 6 -55 20 -55 57 0 42 13 59 44 59 14 0 23 3 20 8 -7 12 -35 11 -56
-2z"/>
<path d="M2153 90 c0 -49 2 -63 6 -40 5 31 10 35 39 38 31 3 32 2 32 -32 0
-20 4 -36 9 -36 12 0 11 129 -1 136 -4 3 -8 -9 -8 -25 0 -29 -3 -31 -34 -31
-32 0 -35 3 -39 33 -2 17 -4 -2 -4 -43z"/>
<path d="M2280 91 c0 -41 4 -71 10 -71 6 0 10 28 10 64 0 36 -4 68 -10 71 -6
4 -10 -20 -10 -64z"/>
<path d="M2337 153 c-4 -3 -6 -36 -5 -72 l1 -66 6 60 6 60 30 -54 c44 -80 55
-78 53 11 l-2 73 -3 -65 -4 -64 -35 62 c-37 66 -37 66 -47 55z"/>
<path d="M2491 119 c-11 -24 -23 -57 -26 -74 -7 -26 -6 -28 6 -13 21 26 79 28
79 3 0 -8 5 -15 11 -15 7 0 8 7 4 18 -4 9 -14 37 -22 62 -23 66 -30 69 -52 19z
m38 -19 c9 -28 8 -30 -15 -30 -26 0 -27 3 -18 38 9 30 20 28 33 -8z"/>
<path d="M2800 113 c0 -27 -3 -58 -6 -70 -4 -14 -2 -23 5 -23 7 0 11 22 12 58
l1 57 20 -58 c11 -32 25 -56 31 -54 6 2 19 25 28 53 l17 49 2 -40 c1 -22 2
-46 1 -53 -1 -6 3 -12 9 -12 7 0 10 24 8 68 -2 37 -7 67 -13 67 -5 0 -19 -27
-31 -59 -23 -65 -24 -65 -48 12 -10 28 -22 52 -27 52 -5 0 -9 -21 -9 -47z"/>
<path d="M2978 90 c-14 -38 -22 -70 -18 -70 4 0 10 10 13 21 5 18 11 20 34 15
15 -4 34 -14 40 -23 7 -9 14 -15 17 -12 5 6 -46 139 -54 139 -4 0 -19 -31 -32
-70z m46 18 c9 -35 8 -38 -18 -38 -23 0 -24 2 -13 30 14 36 23 38 31 8z"/>
<path d="M3236 151 c-8 -13 -46 -122 -46 -130 0 -3 7 3 15 13 19 26 66 28 73
4 2 -10 8 -18 13 -18 12 0 12 1 -12 67 -24 65 -34 80 -43 64z m12 -79 c-27 -5
-30 1 -17 34 l11 29 13 -30 c12 -27 12 -30 -7 -33z"/>
<path d="M3300 155 c0 -3 11 -23 24 -44 13 -21 26 -51 29 -67 l4 -29 2 32 c0
17 11 49 23 70 17 28 18 35 6 25 -10 -8 -20 -23 -24 -34 -5 -18 -8 -16 -30 16
-23 33 -34 43 -34 31z"/>
<path d="M3436 147 c-25 -18 -17 -47 18 -66 16 -9 28 -20 27 -24 0 -4 -1 -11
-1 -16 0 -6 -15 -12 -32 -14 -27 -4 -25 -4 7 -3 36 1 40 4 43 28 3 23 -2 30
-32 42 -20 8 -36 19 -36 24 0 17 27 32 45 25 13 -4 16 -3 11 5 -9 16 -28 15
-50 -1z"/>
<path d="M3533 90 c0 -41 2 -58 4 -38 2 21 2 55 0 76 -2 20 -4 3 -4 -38z"/>
<path d="M3616 151 c-13 -21 -46 -124 -41 -129 2 -3 7 3 11 12 8 22 70 22 78
0 4 -9 9 -15 11 -12 6 6 -32 119 -44 131 -5 5 -12 4 -15 -2z m34 -77 c0 -2
-11 -4 -25 -4 -29 0 -28 -2 -14 40 l12 32 13 -32 c8 -18 14 -34 14 -36z"/>
<path d="M3090 85 l0 -65 43 2 c36 1 38 2 10 5 l-33 4 0 60 c0 33 -4 59 -10
59 -6 0 -10 -28 -10 -65z"/>
</g>
</svg>
