<?xml version="1.0" standalone="no"?>
<!DOCTYPE svg PUBLIC "-//W3C//DTD SVG 20010904//EN"
 "http://www.w3.org/TR/2001/REC-SVG-20010904/DTD/svg10.dtd">
<svg version="1.0" xmlns="http://www.w3.org/2000/svg"
 viewBox="0 0 148.000000 139.000000"
 preserveAspectRatio="xMidYMid meet">

<g transform="translate(0.000000,139.000000) scale(0.100000,-0.100000)"
fill="#000000" stroke="none">
<path d="M130 695 l0 -565 570 0 570 0 0 565 0 565 -570 0 -570 0 0 -565z
m630 302 l0 -43 70 -18 70 -18 0 -52 c0 -75 -15 -85 -108 -79 -69 5 -73 7 -68
27 5 20 5 21 -9 2 -18 -23 -22 -226 -5 -226 6 0 10 -32 10 -75 l0 -75 -37 14
c-62 23 -99 26 -147 12 -25 -8 -47 -11 -50 -8 -4 3 -6 29 -6 58 0 37 5 58 18
70 25 25 31 183 8 216 -12 16 -16 46 -16 105 0 81 0 83 30 98 47 24 60 20 60
-21 0 -31 3 -35 23 -32 16 2 23 11 25 33 5 53 8 55 72 55 l60 0 0 -43z m105 9
c29 -13 35 -20 35 -45 0 -35 -4 -37 -54 -16 -30 13 -36 20 -36 45 0 34 7 36
55 16z m-63 -291 c1 -30 2 -65 2 -77 1 -17 -5 -23 -19 -23 -14 0 -20 6 -19 23
0 12 1 47 2 77 2 41 6 55 17 55 11 0 15 -14 17 -55z m-181 -266 c29 -6 75 -22
103 -35 59 -28 111 -30 163 -9 l36 15 -19 -21 c-50 -56 -124 -62 -232 -18 -86
34 -160 37 -219 7 -18 -9 -33 -13 -33 -8 0 15 61 60 88 66 15 3 32 7 37 9 17
6 23 5 76 -6z"/>
<path d="M587 733 c-4 -21 -7 -55 -7 -75 0 -32 3 -38 21 -38 20 0 21 3 14 68
-8 79 -20 98 -28 45z"/>
<path d="M1460 876 c0 -41 5 -78 10 -81 6 -4 10 23 10 74 0 47 -4 81 -10 81
-6 0 -10 -31 -10 -74z"/>
<path d="M1460 555 c0 -77 4 -125 10 -125 6 0 10 48 10 125 0 77 -4 125 -10
125 -6 0 -10 -48 -10 -125z"/>
<path d="M1460 207 c0 -31 4 -58 9 -62 6 -3 7 18 4 52 -8 76 -13 80 -13 10z"/>
</g>
</svg>
